<?xml version="1.0" encoding="utf-8"?>
<!-- Generator: Adobe Illustrator 25.4.1, SVG Export Plug-In . SVG Version: 6.00 Build 0)  -->
<svg version="1.1" id="Layer_1" xmlns="http://www.w3.org/2000/svg" xmlns:xlink="http://www.w3.org/1999/xlink" x="0px" y="0px"
	 viewBox="0 0 1166 365" style="enable-background:new 0 0 1166 365;" xml:space="preserve">
<style type="text/css">
	.st0{fill:#D7394B;}
	.st1{fill-rule:evenodd;clip-rule:evenodd;fill:#D7394B;}
	.st2{fill:#517FA1;}
</style>
<path class="st0" d="M1053,165.67l72.12,99.28h-43l-66.54-95.36h-6.34v95.36h-35.15V31.99h41.19c30.78,0,53.01,5.78,66.69,17.35
	c15.09,12.88,22.64,29.87,22.64,50.99c0,16.5-4.73,30.68-14.19,42.55C1080.97,154.76,1068.49,162.35,1053,165.67 M1009.25,138.96
	h11.17c33.29,0,49.94-12.72,49.94-38.17c0-23.84-16.2-35.76-48.58-35.76h-12.53V138.96z"/>
<rect x="563.55" y="23.9" class="st1" width="37.72" height="241.05"/>
<polygon class="st1" points="46.54,264.95 164.69,17.73 282.85,264.95 243.39,264.95 165.48,94.74 85.98,264.95 "/>
<polygon class="st1" points="491.71,23.9 373.55,271.11 255.4,23.9 294.85,23.9 374.49,196.53 452.24,23.9 "/>
<path class="st1" d="M774.35,23.9c-31.95,0-60,12.47-81.34,32.76v74c8-39.69,39.78-69.99,81.34-69.99
	c46.26,0,83.16,37.5,83.16,83.76c0,46.26-36.61,83.76-82.86,83.76c-41.55,0-73.63-30.3-81.63-69.99v74
	c21.34,20.29,49.39,32.76,81.34,32.76c66.56,0,120.53-53.96,120.53-120.53S840.91,23.9,774.35,23.9"/>
<polygon class="st2" points="46.54,305.46 50.54,305.46 59.45,319.82 68.22,305.46 72.25,305.46 61.21,323.63 61.21,340.28 
	57.78,340.28 57.78,323.63 "/>
<path class="st2" d="M126.55,304.58c5.27,0,9.69,1.76,13.24,5.28c3.56,3.52,5.33,7.85,5.33,13c0,5.09-1.77,9.42-5.32,12.97
	c-3.54,3.56-7.87,5.33-12.97,5.33c-5.16,0-9.53-1.77-13.08-5.3c-3.55-3.54-5.33-7.81-5.33-12.83c0-3.34,0.81-6.44,2.43-9.3
	c1.62-2.85,3.83-5.09,6.62-6.71C120.27,305.39,123.3,304.58,126.55,304.58 M126.71,307.96c-2.57,0-5.02,0.67-7.33,2.01
	c-2.31,1.34-4.11,3.15-5.41,5.43c-1.29,2.28-1.94,4.81-1.94,7.61c0,4.13,1.44,7.63,4.3,10.48c2.87,2.85,6.33,4.28,10.38,4.28
	c2.7,0,5.2-0.65,7.5-1.97c2.3-1.31,4.1-3.1,5.38-5.38c1.29-2.28,1.93-4.8,1.93-7.58c0-2.76-0.65-5.26-1.93-7.5
	c-1.29-2.24-3.1-4.03-5.44-5.37C131.82,308.64,129.33,307.96,126.71,307.96 M121.95,297.29c0.75,0,1.4,0.27,1.94,0.81
	c0.54,0.54,0.81,1.18,0.81,1.94c0,0.76-0.27,1.4-0.81,1.94c-0.54,0.54-1.18,0.81-1.94,0.81c-0.76,0-1.4-0.27-1.94-0.81
	c-0.54-0.54-0.81-1.18-0.81-1.94c0-0.76,0.27-1.41,0.81-1.94C120.55,297.56,121.19,297.29,121.95,297.29 M131.61,297.29
	c0.76,0,1.4,0.27,1.94,0.81c0.54,0.54,0.81,1.18,0.81,1.94c0,0.76-0.27,1.4-0.81,1.94c-0.54,0.54-1.18,0.81-1.94,0.81
	s-1.4-0.27-1.94-0.81c-0.54-0.54-0.81-1.18-0.81-1.94c0-0.76,0.27-1.41,0.81-1.94C130.21,297.56,130.85,297.29,131.61,297.29"/>
<polygon class="st2" points="184.13,340.28 184.13,305.46 184.89,305.46 208.07,332.15 208.07,305.46 211.5,305.46 211.5,340.28 
	210.71,340.28 187.73,313.91 187.73,340.28 "/>
<polygon class="st2" points="251.99,305.46 271.95,305.46 271.95,308.87 255.48,308.87 255.48,319.78 271.81,319.78 271.81,323.19 
	255.48,323.19 255.48,336.87 271.81,336.87 271.81,340.28 251.99,340.28 "/>
<polygon class="st2" points="306.5,308.87 306.5,305.46 325.58,305.46 325.58,308.87 317.82,308.87 317.82,340.28 314.26,340.28 
	314.26,308.87 "/>
<path class="st2" d="M361.8,302.87c0-1.26,1.07-2.42,2.42-2.42c1.31,0,2.33,1.17,2.33,2.42c0,1.26-1.02,2.47-2.33,2.47
	C362.82,305.34,361.8,304.12,361.8,302.87 M366.26,340.28h-4.22v-32.66h4.22V340.28z"/>
<path class="st2" d="M433.16,325.93c-0.24-4.55-0.53-10.03-0.48-14.1h-0.15c-1.11,3.83-2.47,7.9-4.12,12.41l-5.77,15.85h-3.2
	l-5.28-15.56c-1.55-4.61-2.86-8.82-3.78-12.7h-0.1c-0.1,4.07-0.34,9.55-0.63,14.44l-0.87,14.01h-4.02l2.28-32.67h5.37l5.57,15.8
	c1.36,4.02,2.47,7.6,3.29,11h0.15c0.83-3.29,1.99-6.88,3.44-11l5.81-15.8h5.38l2.04,32.67h-4.12L433.16,325.93z"/>
<path class="st2" d="M518.88,308.05c2.57-0.39,5.62-0.68,8.97-0.68c6.06,0,10.37,1.41,13.23,4.08c2.91,2.66,4.61,6.44,4.61,11.72
	c0,5.33-1.65,9.7-4.7,12.7c-3.05,3.05-8.09,4.7-14.44,4.7c-3.01,0-5.53-0.14-7.66-0.39V308.05z M523.1,336.93
	c1.06,0.19,2.61,0.24,4.26,0.24c9.02,0,13.91-5.04,13.91-13.86c0.05-7.71-4.31-12.6-13.23-12.6c-2.18,0-3.83,0.2-4.94,0.44V336.93z"
	/>
<path class="st2" d="M587.77,330l-3.39,10.27h-4.36l11.1-32.67h5.09l11.14,32.67h-4.51L599.35,330H587.77z M598.48,326.71l-3.2-9.4
	c-0.73-2.13-1.21-4.07-1.69-5.96h-0.1c-0.49,1.94-1.02,3.93-1.65,5.91l-3.2,9.45H598.48z"/>
<path class="st2" d="M644.15,340.28v-32.66h4.61l10.47,16.53c2.42,3.83,4.31,7.27,5.86,10.61l0.1-0.05
	c-0.39-4.36-0.49-8.33-0.49-13.42v-13.67h3.97v32.66h-4.26l-10.37-16.57c-2.28-3.64-4.46-7.37-6.11-10.91l-0.15,0.05
	c0.24,4.12,0.34,8.05,0.34,13.48v13.96H644.15z"/>
<rect x="708.05" y="307.61" class="st2" width="4.22" height="32.66"/>
<path class="st2" d="M767.29,312.12c-1.06-0.58-3.25-1.55-6.2-1.55c-4.45,0-6.15,2.66-6.15,4.9c0,3.05,1.99,4.55,6.49,6.3
	c5.53,2.13,8.34,4.8,8.34,9.6c0,4.36-2.76,8.19-8.48,9.16l-1.31,2.18c1.84,0.34,3.39,1.64,3.39,3.63c0,2.81-2.47,3.92-4.95,3.92
	c-1.26,0-2.61-0.34-3.49-0.82l0.73-2.18c0.73,0.39,1.65,0.63,2.67,0.63c1.12,0,2.04-0.44,2.04-1.45c0-1.31-1.5-1.84-3.78-2.09
	l1.94-3.58h-0.19c-3.15,0-6.59-0.92-8.33-2.09l1.06-3.54c1.89,1.17,4.65,2.13,7.56,2.13c4.32,0,6.84-2.28,6.84-5.57
	c0-3.05-1.75-4.8-6.16-6.5c-5.33-1.89-8.63-4.65-8.63-9.26c0-5.09,4.21-8.87,10.56-8.87c3.34,0,5.77,0.78,7.22,1.6L767.29,312.12z"
	/>
<path class="st2" d="M835.06,325.93c-0.24-4.55-0.53-10.03-0.48-14.1h-0.15c-1.11,3.83-2.47,7.9-4.12,12.41l-5.77,15.85h-3.2
	l-5.28-15.56c-1.55-4.61-2.86-8.82-3.78-12.7h-0.1c-0.1,4.07-0.34,9.55-0.63,14.44l-0.87,14.01h-4.02l2.28-32.67h5.37l5.57,15.8
	c1.36,4.02,2.47,7.6,3.29,11h0.15c0.83-3.29,1.99-6.88,3.44-11l5.82-15.8h5.38l2.04,32.67h-4.12L835.06,325.93z"/>
<path class="st2" d="M883.3,330l-3.39,10.27h-4.36l11.1-32.67h5.09l11.14,32.67h-4.51L894.89,330H883.3z M894.01,326.71l-3.2-9.4
	c-0.73-2.13-1.21-4.07-1.69-5.96h-0.1c-0.49,1.94-1.02,3.93-1.65,5.91l-3.2,9.45H894.01z"/>
<path class="st2" d="M939.69,340.28v-32.66h4.61l10.47,16.53c2.42,3.83,4.31,7.27,5.86,10.61l0.1-0.05
	c-0.39-4.36-0.49-8.33-0.49-13.42v-13.67h3.97v32.66h-4.26l-10.37-16.57c-2.28-3.64-4.46-7.37-6.11-10.91l-0.15,0.05
	c0.24,4.12,0.34,8.05,0.34,13.48v13.96H939.69z"/>
<polygon class="st2" points="1003.59,307.61 1007.81,307.61 1007.81,336.74 1021.76,336.74 1021.76,340.28 1003.59,340.28 "/>
<rect x="1058.47" y="307.61" class="st2" width="4.22" height="32.66"/>
<path class="st2" d="M1102.06,307.61h4.22v15.75h0.14c0.87-1.26,1.74-2.42,2.57-3.49l9.99-12.26h5.23l-11.82,13.86l12.74,18.8h-4.99
	l-10.75-16.04l-3.1,3.58v12.45h-4.22V307.61z"/>
</svg>
